<svg width="100%" height="220" viewBox="0 0 680 220" xmlns="http://www.w3.org/2000/svg" role="img">
<title>Eren Akarsu - Avukat ve Yazılım Mühendisi - Legal Tech Banner</title>
<desc>Kod editörü renk paletiyle tasarlanmış legal tech temalı GitHub banner</desc>

<defs>
<linearGradient id="bg2" x1="0" y1="0" x2="680" y2="220" gradientUnits="userSpaceOnUse">
<stop offset="0" stop-color="#0d1117"/>
<stop offset="0.55" stop-color="#10141c"/>
<stop offset="1" stop-color="#161b22"/>
</linearGradient>
<clipPath id="round2"><rect x="0" y="0" width="680" height="220" rx="14"/></clipPath>
</defs>

<g clip-path="url(#round2)">
<rect x="0" y="0" width="680" height="220" fill="url(#bg2)"/>

<g opacity="0.10" stroke="#8b949e" stroke-width="0.5">
<line x1="0" y1="40" x2="680" y2="40"/>
<line x1="0" y1="80" x2="680" y2="80"/>
<line x1="0" y1="120" x2="680" y2="120"/>
<line x1="0" y1="160" x2="680" y2="160"/>
<line x1="0" y1="200" x2="680" y2="200"/>
<line x1="140" y1="0" x2="140" y2="220"/>
<line x1="340" y1="0" x2="340" y2="220"/>
<line x1="540" y1="0" x2="540" y2="220"/>
</g>

<g opacity="0.45">
<circle cx="600" cy="40" r="160" fill="none" stroke="#58a6ff" stroke-width="0.5"/>
<circle cx="600" cy="40" r="110" fill="none" stroke="#bc8cff" stroke-width="0.5"/>
</g>

<rect x="0" y="0" width="4" height="220" fill="#58a6ff"/>

<g transform="translate(70,55)" stroke="#79c0ff" stroke-width="1.5" fill="none" stroke-linecap="round" stroke-linejoin="round">
<line x1="40" y1="0" x2="40" y2="92"/>
<line x1="8" y1="0" x2="72" y2="0"/>
<line x1="40" y1="13" x2="0" y2="42"/>
<line x1="40" y1="13" x2="80" y2="42"/>
<path d="M0 42 L-13 42 A13 9 0 0 0 13 42 Z"/>
<path d="M80 42 L67 42 A13 9 0 0 0 93 42 Z"/>
<line x1="18" y1="92" x2="62" y2="92"/>
<circle cx="40" cy="13" r="3" fill="#79c0ff" stroke="none"/>
</g>

<text x="40" y="40" font-family="'Courier New', monospace" font-size="12"><tspan fill="#ff7b72">const</tspan><tspan fill="#c9d1d9"> legal_tech </tspan><tspan fill="#ff7b72">=</tspan><tspan fill="#c9d1d9"> </tspan><tspan fill="#79c0ff">true</tspan></text>

<g transform="translate(580,165)" stroke="#bc8cff" stroke-width="2" fill="none" stroke-linecap="round" stroke-linejoin="round" opacity="0.8">
<path d="M0 0 L-15 19 L0 38"/>
<path d="M42 0 L57 19 L42 38"/>
<line x1="21" y1="-5" x2="21" y2="43" stroke-width="1.5"/>
</g>

<text x="220" y="95" font-family="'Segoe UI', Arial, sans-serif" font-size="36" font-weight="500" fill="#f0f6fc">Eren Akarsu</text>

<text x="220" y="126" font-family="'Courier New', monospace" font-size="15"><tspan fill="#8b949e">avukat</tspan><tspan fill="#ff7b72">.</tspan><tspan fill="#d2a8ff">yazılım_mühendisi</tspan><tspan fill="#79c0ff">()</tspan></text>

<line x1="220" y1="140" x2="430" y2="140" stroke="#30363d" stroke-width="1"/>

<g transform="translate(220,156)">
<rect x="0" y="0" width="100" height="24" rx="12" fill="#1f6feb" opacity="0.15" stroke="#58a6ff" stroke-width="0.75"/>
<text x="50" y="16" font-family="'Courier New', monospace" font-size="11" fill="#79c0ff" text-anchor="middle">legal × code</text>
</g>

<g transform="translate(330,156)">
<rect x="0" y="0" width="116" height="24" rx="12" fill="#a371f7" opacity="0.15" stroke="#bc8cff" stroke-width="0.75"/>
<text x="58" y="16" font-family="'Courier New', monospace" font-size="11" fill="#d2a8ff" text-anchor="middle">UI / UX design</text>
</g>

<g transform="translate(456,156)">
<rect x="0" y="0" width="104" height="24" rx="12" fill="#3fb950" opacity="0.15" stroke="#56d364" stroke-width="0.75"/>
<text x="52" y="16" font-family="'Courier New', monospace" font-size="11" fill="#7ee787" text-anchor="middle">React · Node</text>
</g>

</g>
</svg>
